<?xml version="1.0" encoding="utf-8"?>
<!-- Generator: Adobe Illustrator 24.3.0, SVG Export Plug-In . SVG Version: 6.00 Build 0)  -->
<svg version="1.1" id="Ebene_1" xmlns="http://www.w3.org/2000/svg" xmlns:xlink="http://www.w3.org/1999/xlink" x="0px" y="0px"
	 viewBox="0 0 850.4 215.3" style="enable-background:new 0 0 850.4 215.3;" xml:space="preserve">
<style type="text/css">
	.st0{fill:#62EE35;}
</style>
<path class="st0" d="M280.1,162.1c-8.8,10.7-19,17.8-32.6,17.8c-16.5,0-29.2-11.8-32.1-30H315c1.1-6.8,1.9-13.9,1.9-19.9
	c0-38.9-30.5-67.2-71.6-67.2c-42.5,0-74.6,34-74.6,78.4s31,74,74.3,74c30.7,0,48.5-11.1,65.6-33.9L280.1,162.1z M246.7,96.6
	c13.5,0,24.2,7.7,25.5,23.2h-54.8C221.4,106.1,230.1,96.6,246.7,96.6z"/>
<path class="st0" d="M77.2,104.7c19.3,0.1,33.2,16.1,33.2,37.2l0,70.1h44l0-72.8c0-42.1-34.5-76.3-77.2-76.3C34.6,62.9,0,97,0,139.2
	L0,212h44l0-70.1C44,120.8,57.9,104.8,77.2,104.7L77.2,104.7z"/>
<path class="st0" d="M404.8,104.7V65.9h-27.6V38.3h-44.1l0,99.4c0,1.5-2.8,74.3,76.3,74.3l0,0h4.9v-42.1h-4.9l0,0
	c-18.8,0-32.2-9.4-32.2-34.2v-31H404.8z"/>
<path class="st0" d="M476,212h-44.1l0-75c0-47.5,33.5-74.3,76.3-74.3v42.1c-18.8,0-32.2,9.4-32.2,34.2L476,212z"/>
<g>
	<rect x="530.4" y="62.6" class="st0" width="44.1" height="149.4"/>
	<path class="st0" d="M552.5,0C538.9,0,528,11,528,24.5c0,13.5,11,24.5,24.5,24.5c13.5,0,24.5-11,24.5-24.5C577,11,566,0,552.5,0z"
		/>
	<path class="st0" d="M671.1,178.3c-9.5,0-17.4-3.8-23.7-11.4S638,150,638,139.1c0-10.9,3.3-20.1,9.5-27.8
		c6.3-7.6,14.7-11.4,24.8-11.4c10.6,0,19.6,3.8,28.3,11.8l22.3-28.9c-15.5-13.3-33.7-19.9-54.7-19.9c-22,0-40.3,7.4-54.2,22
		c-13.9,14.4-20.7,32.6-20.7,54.1c0,22.6,6.8,40.8,20.4,55c13.9,14.2,31.6,21.2,53.3,21.2c22.6,0,41.6-7.1,55.8-19.9l-22.5-29.2
		C693.4,172.5,685.3,178.3,671.1,178.3z"/>
</g>
<g>
	<path class="st0" d="M735,195.7l21.5-27.9c13.3,10.2,22.9,14.1,34.4,14.1c12,0,17.1-4.3,17.1-11.5c0-8.7-14-12.8-28.8-18.6
		c-17.4-6.9-37.8-18.6-37.8-42.6c0-27.6,22.5-46.2,56.2-46.2c23,0,40.1,10.2,52.8,19.6l-20.8,26.9c-10.2-7.1-20.8-13-30.5-13
		c-10.2,0-15.3,3.6-15.3,10.5c0,8.7,13.3,12,28.3,17.4c18.1,6.9,38.3,17.4,38.3,43.6c0,26.8-20.9,47.5-60.5,47.5
		C771,215.3,749.5,207.9,735,195.7z"/>
</g>
</svg>